PathFileType	4	(X/Y/Z)	TVC_9_BWA3_walk_RCNL2025.trc
DataRate	CameraRate	NumFrames	NumMarkers	Units	OrigDataRate	OrigDataStartFrame	OrigNumFrames
100	100	6	27	mm	100	220	438
Frame#	Time	R_Shoulder			L_Shoulder			C7			J_Notch			R_Elbow			L_Elbow			R_Wrist			L_Wrist			R_Asis			L_Asis			R_Psis			L_Psis			Sacral			Thoracic			Sternum			R_Thigh_Lateral			R_Knee_Lateral			R_Shank_Lateral			R_Ankle_Lateral			R_Heel			R_Toe			L_Thigh_Lateral			L_Knee_Lateral			L_Shank_Lateral			L_Ankle_Lateral			L_Heel			L_Toe		
		X1	Y1	Z1	X2	Y2	Z2	X3	Y3	Z3	X4	Y4	Z4	X5	Y5	Z5	X6	Y6	Z6	X7	Y7	Z7	X8	Y8	Z8	X9	Y9	Z9	X10	Y10	Z10	X11	Y11	Z11	X12	Y12	Z12	X13	Y13	Z13	X14	Y14	Z14	X15	Y15	Z15	X16	Y16	Z16	X17	Y17	Z17	X18	Y18	Z18	X19	Y19	Z19	X20	Y20	Z20	X21	Y21	Z21	X22	Y22	Z22	X23	Y23	Z23	X24	Y24	Z24	X25	Y25	Z25	X26	Y26	Z26	X27	Y27	Z27
220	2.19000000	194.884872	1368.526978	3.221487	155.413651	1370.022705	-387.935181	125.958771	1436.398926	-198.114014	278.963623	1336.704956	-192.085800	148.032013	1044.380615	110.392136	144.639313	1036.896973	-479.062500	225.002495	805.073944	103.558182	242.346237	812.912750	-492.772217	217.859634	921.809265	-29.375364	201.351028	930.584961	-333.614594	18.351192	950.988525	-120.628441	14.564419	953.215027	-220.818008	16.457806	952.101776	-170.723225	29.229469	1162.565063	-180.318939	335.461029	1145.217041	-192.753372	243.744446	525.943054	40.143173	243.701187	457.198090	-26.721579	142.281250	347.327148	24.889923	-55.535458	226.236053	-35.804089	-102.308784	258.616791	-94.406082	14.347034	114.811028	-79.886230	242.656586	568.826111	-359.796143	234.335770	439.476959	-296.507141	216.017548	291.809509	-334.553589	181.991684	75.365372	-250.059875	131.835892	51.581848	-188.035568	319.986877	44.909306	-233.103302
221	2.20000000	202.644028	1369.354492	2.847728	164.878967	1371.172974	-388.502411	134.962097	1437.428467	-198.801437	287.734375	1337.376099	-192.296677	149.139420	1045.266846	107.743904	159.832108	1038.434326	-481.978699	220.342369	804.100952	101.465870	263.062889	816.978790	-496.321884	225.791626	922.598389	-30.298159	209.278030	931.684998	-334.671234	26.450958	952.036499	-121.522522	22.581612	954.663574	-221.662476	24.516285	953.350037	-171.592499	37.670704	1163.749023	-181.384460	343.794952	1145.796387	-192.897202	261.955139	529.205505	37.753632	263.459808	460.680450	-29.411041	164.168411	349.198303	22.683668	-30.615017	223.702606	-37.429707	-79.047119	253.923828	-96.176773	43.173859	114.665123	-80.308319	245.774979	568.976685	-360.048157	235.901733	439.494507	-296.534912	216.779526	291.863861	-334.668243	182.001175	75.395210	-250.078690	131.896835	51.692005	-188.034180	320.082031	44.800064	-233.082092
222	2.21000000	210.286133	1370.218140	2.470633	174.309631	1372.265991	-389.049011	143.884323	1438.385620	-199.506744	296.447968	1338.016602	-192.471283	150.198502	1046.390259	105.192711	174.964584	1040.078491	-484.902069	215.830475	803.579895	99.282032	283.652260	821.268921	-499.853607	233.753143	923.382690	-31.211185	217.288254	932.714905	-335.630798	34.588676	953.030273	-122.338104	30.640417	956.021301	-222.454391	32.614547	954.525787	-172.396248	46.088982	1164.841064	-182.426163	352.135834	1146.382568	-192.939606	279.929108	532.584656	35.396812	282.667480	464.244690	-32.064308	185.838043	350.877777	20.524345	-5.145012	220.092194	-39.149940	-55.226490	247.972717	-98.050354	72.677818	113.824257	-80.868271	248.725494	569.019897	-360.301819	237.431976	439.505463	-296.558411	217.534271	291.940125	-334.810181	182.014511	75.431236	-250.099503	131.939194	51.812302	-188.066849	320.199982	44.639355	-233.029602
223	2.22000000	217.832474	1371.109375	2.084154	183.710770	1373.285400	-389.580109	152.732071	1439.260010	-200.233429	305.112274	1338.617920	-192.617996	151.241684	1047.741943	102.752251	190.031067	1041.811523	-487.824005	211.509842	803.488525	97.011230	304.081833	825.752991	-503.358658	241.755066	924.140320	-32.125401	225.382538	933.661743	-336.499756	42.771603	953.955383	-123.077522	38.742664	957.272583	-223.191330	40.757133	955.613983	-173.134426	54.493198	1165.831177	-183.442596	360.491119	1146.962402	-192.895721	297.524567	536.017517	33.080467	301.284698	467.807465	-34.644989	207.225906	352.322937	18.426138	20.797693	215.502319	-40.947685	-30.867582	240.869522	-100.023117	102.748352	112.450325	-81.561317	251.684143	568.973999	-360.552734	238.962585	439.506226	-296.575958	218.310287	292.035767	-334.981720	182.037170	75.474312	-250.117325	131.964005	51.945068	-188.132812	320.336029	44.433987	-232.952820
224	2.23000000	225.305618	1372.017090	1.683731	193.086182	1374.215698	-390.099701	161.512634	1440.041504	-200.982986	313.735291	1339.170654	-192.744888	152.302307	1049.308472	100.434097	205.025269	1043.615112	-490.735626	207.419647	803.798889	94.660765	324.321350	830.399384	-506.827896	249.805405	924.848816	-33.048897	233.557510	934.513367	-337.286591	51.005013	954.797668	-123.743614	46.889191	958.404175	-223.870560	48.947102	956.600922	-173.807087	62.891811	1166.709595	-184.431534	368.866669	1147.521851	-192.782028	314.617493	539.444946	30.819967	319.279694	471.287689	-37.118855	228.274765	353.489899	16.402649	47.143303	210.044495	-42.810627	-5.986221	232.738480	-102.094612	133.280426	110.697937	-82.376572	254.774551	568.853394	-360.798981	240.523300	439.494324	-296.587738	219.132080	292.146576	-335.184479	182.073807	75.525414	-250.128006	131.975677	52.093090	-188.228363	320.483154	44.193752	-232.862732
225	2.24000000	232.728989	1372.928345	1.266264	202.438232	1375.042847	-390.610657	170.233917	1440.720947	-201.754913	322.325134	1339.665039	-192.859451	153.414230	1051.072510	98.247238	219.940247	1045.470947	-493.627899	203.595024	804.478271	92.240606	344.342865	835.175598	-510.251953	257.909393	925.486328	-33.986481	241.806320	935.259277	-338.001343	59.292465	955.543823	-124.339462	55.080044	959.405518	-224.489716	57.186255	957.474670	-174.414589	71.292816	1167.467773	-185.389938	377.266876	1148.046143	-192.615921	331.108215	542.803101	28.637386	336.628387	474.608887	-39.454868	248.942169	354.332794	14.466553	73.832825	203.839294	-44.731853	19.405064	223.719788	-104.265144	164.175217	108.700027	-83.298180	258.057770	568.667786	-361.040894	242.137344	439.468079	-296.595398	220.019440	292.266907	-335.417694	182.127869	75.585495	-250.128677	131.980133	52.258667	-188.347290	320.633667	43.930477	-232.771835
